<svg width="149" height="40" viewBox="0 0 149 40" fill="none" xmlns="http://www.w3.org/2000/svg">
<path d="M50.7969 18V3.99609H58.4629C60.7285 3.99609 61.8613 5.13216 61.8613 7.4043V9.39648C61.8613 11.6686 60.7285 12.8047 58.4629 12.8047H52.7988V18H50.7969ZM52.7988 10.8027H58.3555C58.8893 10.8027 59.2734 10.6855 59.5078 10.4512C59.7422 10.2168 59.8594 9.83268 59.8594 9.29883V7.50195C59.8594 6.9681 59.7422 6.58398 59.5078 6.34961C59.2734 6.11523 58.8893 5.99805 58.3555 5.99805H52.7988V10.8027ZM66.4902 7.59961V18H64.5664V7.59961H66.4902ZM64.4688 3.5957H66.5879V5.59766H64.4688V3.5957ZM78.8633 7.59961L75.084 12.6777L79.0391 18H76.7148L73.9219 14.2402L71.1191 18H68.7949L72.7598 12.6777L68.9805 7.59961H71.2949L73.9219 11.1152L76.5391 7.59961H78.8633ZM90.0449 13.7812H83.1602V16.0762H90.0449V18H83.1602C82.8997 18 82.6523 17.9512 82.418 17.8535C82.1836 17.7493 81.9785 17.6126 81.8027 17.4434C81.6335 17.2676 81.4967 17.0625 81.3926 16.8281C81.2949 16.5938 81.2461 16.3431 81.2461 16.0762V9.52344C81.2461 9.25651 81.2949 9.00586 81.3926 8.77148C81.4967 8.53711 81.6335 8.33529 81.8027 8.16602C81.9785 7.99023 82.1836 7.85352 82.418 7.75586C82.6523 7.65169 82.8997 7.59961 83.1602 7.59961H88.1211C88.388 7.59961 88.6387 7.65169 88.873 7.75586C89.1074 7.85352 89.3092 7.99023 89.4785 8.16602C89.6543 8.33529 89.791 8.53711 89.8887 8.77148C89.9928 9.00586 90.0449 9.25651 90.0449 9.52344V13.7812ZM83.1602 9.52344V11.8574H88.1211V9.52344H83.1602ZM95.1719 3.5957V18H93.2578V3.5957H95.1719ZM100.289 3.5957V18H98.375V3.5957H100.289ZM103.492 13.459C103.492 13.1921 103.541 12.9447 103.639 12.7168C103.743 12.4824 103.88 12.2773 104.049 12.1016C104.225 11.9258 104.43 11.7891 104.664 11.6914C104.898 11.5872 105.146 11.5352 105.406 11.5352H110.367V9.52344H104.088V7.59961H110.367C110.634 7.59961 110.885 7.65169 111.119 7.75586C111.354 7.85352 111.555 7.99023 111.725 8.16602C111.9 8.33529 112.037 8.53711 112.135 8.77148C112.239 9.00586 112.291 9.25651 112.291 9.52344V18H110.367V16.2422C110.348 16.4831 110.283 16.7109 110.172 16.9258C110.061 17.1406 109.918 17.3294 109.742 17.4922C109.573 17.6484 109.378 17.7721 109.156 17.8633C108.935 17.9544 108.701 18 108.453 18H105.406C105.146 18 104.898 17.9512 104.664 17.8535C104.43 17.7493 104.225 17.6126 104.049 17.4434C103.88 17.2676 103.743 17.0625 103.639 16.8281C103.541 16.5938 103.492 16.3431 103.492 16.0762V13.459ZM105.406 16.0762H110.367V13.459H105.406V16.0762ZM114.898 7.59961H117.438V4.39648H119.361V7.59961H122.779V9.52344H119.361V16.0762H122.779V18H119.361C119.101 18 118.854 17.9512 118.619 17.8535C118.385 17.7493 118.18 17.6126 118.004 17.4434C117.828 17.2676 117.688 17.0625 117.584 16.8281C117.486 16.5938 117.438 16.3431 117.438 16.0762V9.52344H114.898V7.59961ZM134.791 13.7812H127.906V16.0762H134.791V18H127.906C127.646 18 127.398 17.9512 127.164 17.8535C126.93 17.7493 126.725 17.6126 126.549 17.4434C126.38 17.2676 126.243 17.0625 126.139 16.8281C126.041 16.5938 125.992 16.3431 125.992 16.0762V9.52344C125.992 9.25651 126.041 9.00586 126.139 8.77148C126.243 8.53711 126.38 8.33529 126.549 8.16602C126.725 7.99023 126.93 7.85352 127.164 7.75586C127.398 7.65169 127.646 7.59961 127.906 7.59961H132.867C133.134 7.59961 133.385 7.65169 133.619 7.75586C133.854 7.85352 134.055 7.99023 134.225 8.16602C134.4 8.33529 134.537 8.53711 134.635 8.77148C134.739 9.00586 134.791 9.25651 134.791 9.52344V13.7812ZM127.906 9.52344V11.8574H132.867V9.52344H127.906ZM138.004 9.52344C138.004 9.25651 138.053 9.00586 138.15 8.77148C138.255 8.53711 138.391 8.33529 138.561 8.16602C138.736 7.99023 138.941 7.85352 139.176 7.75586C139.41 7.65169 139.658 7.59961 139.918 7.59961H145.279V3.5957H147.203V18H145.279V16.2422C145.26 16.4831 145.195 16.7109 145.084 16.9258C144.973 17.1406 144.83 17.3294 144.654 17.4922C144.485 17.6484 144.29 17.7721 144.068 17.8633C143.847 17.9544 143.613 18 143.365 18H139.918C139.658 18 139.41 17.9512 139.176 17.8535C138.941 17.7493 138.736 17.6126 138.561 17.4434C138.391 17.2676 138.255 17.0625 138.15 16.8281C138.053 16.5938 138.004 16.3431 138.004 16.0762V9.52344ZM139.918 16.0762H145.279V9.52344H139.918V16.0762ZM57.916 33.998C58.847 33.998 59.5632 33.7474 60.0645 33.2461C60.5658 32.7448 60.8164 32.0286 60.8164 31.0977V26.8984C60.8164 26.4427 60.7513 26.0358 60.6211 25.6777C60.4909 25.3197 60.2988 25.0169 60.0449 24.7695C59.7975 24.5156 59.4948 24.3236 59.1367 24.1934C58.7786 24.0632 58.3717 23.998 57.916 23.998H52.7988V33.998H57.916ZM50.7969 36V21.9961H57.916C58.6647 21.9961 59.3385 22.1133 59.9375 22.3477C60.543 22.5755 61.0573 22.9043 61.4805 23.334C61.9102 23.7572 62.2389 24.2715 62.4668 24.877C62.7012 25.4824 62.8184 26.1562 62.8184 26.8984V31.0977C62.8184 31.8398 62.7012 32.5137 62.4668 33.1191C62.2389 33.7246 61.9102 34.2422 61.4805 34.6719C61.0573 35.0951 60.543 35.4238 59.9375 35.6582C59.3385 35.8861 58.6647 36 57.916 36H50.7969ZM74.6348 31.7812H67.75V34.0762H74.6348V36H67.75C67.4896 36 67.2422 35.9512 67.0078 35.8535C66.7734 35.7493 66.5684 35.6126 66.3926 35.4434C66.2233 35.2676 66.0866 35.0625 65.9824 34.8281C65.8848 34.5938 65.8359 34.3431 65.8359 34.0762V27.5234C65.8359 27.2565 65.8848 27.0059 65.9824 26.7715C66.0866 26.5371 66.2233 26.3353 66.3926 26.166C66.5684 25.9902 66.7734 25.8535 67.0078 25.7559C67.2422 25.6517 67.4896 25.5996 67.75 25.5996H72.7109C72.9779 25.5996 73.2285 25.6517 73.4629 25.7559C73.6973 25.8535 73.8991 25.9902 74.0684 26.166C74.2441 26.3353 74.3809 26.5371 74.4785 26.7715C74.5827 27.0059 74.6348 27.2565 74.6348 27.5234V31.7812ZM67.75 27.5234V29.8574H72.7109V27.5234H67.75ZM80.8066 36L76.6465 25.5996H78.6484L81.8027 33.6953L84.9668 25.5996H86.9688L82.8086 36H80.8066Z" fill="url(#paint0_linear_7_84)"/>
<g opacity="0.4">
<path d="M6.76923 9.23077C6.76923 7.8713 7.8713 6.76923 9.23077 6.76923H12.9231V12.9231H6.76923V9.23077Z" fill="url(#paint1_linear_7_84)"/>
<path d="M6.76923 13.5385H12.9231V19.6923H6.76923V13.5385Z" fill="url(#paint2_linear_7_84)"/>
<path d="M0 20.3077H6.15385V26.4615H0V20.3077Z" fill="url(#paint3_linear_7_84)"/>
<path d="M6.76923 27.0769H12.9231V33.2308H9.23077C7.8713 33.2308 6.76923 32.1287 6.76923 30.7692V27.0769Z" fill="url(#paint4_linear_7_84)"/>
<path d="M13.5385 6.76923H19.6923V12.9231H13.5385V6.76923Z" fill="url(#paint5_linear_7_84)"/>
<path d="M13.5385 13.5385H19.6923V19.6923H13.5385V13.5385Z" fill="url(#paint6_linear_7_84)"/>
<path d="M13.5385 20.3077H19.6923V26.4615H13.5385V20.3077Z" fill="url(#paint7_linear_7_84)"/>
<path d="M13.5385 27.0769H19.6923V33.2308H13.5385V27.0769Z" fill="url(#paint8_linear_7_84)"/>
<path d="M20.3077 0H26.4615V6.15385H20.3077V0Z" fill="url(#paint9_linear_7_84)"/>
<path d="M20.3077 13.5385H26.4615V19.6923H20.3077V13.5385Z" fill="url(#paint10_linear_7_84)"/>
<path d="M20.3077 20.3077H26.4615V26.4615H20.3077V20.3077Z" fill="url(#paint11_linear_7_84)"/>
<path d="M20.3077 33.8462H26.4615V40H20.3077V33.8462Z" fill="url(#paint12_linear_7_84)"/>
<path d="M27.0769 6.76923H30.7692C32.1287 6.76923 33.2308 7.8713 33.2308 9.23077V12.9231H27.0769V6.76923Z" fill="url(#paint13_linear_7_84)"/>
<path d="M33.8462 13.5385H40V19.6923H33.8462V13.5385Z" fill="url(#paint14_linear_7_84)"/>
<path d="M27.0769 20.3077H33.2308V26.4615H27.0769V20.3077Z" fill="url(#paint15_linear_7_84)"/>
<path d="M27.0769 27.0769H33.2308V30.7692C33.2308 32.1287 32.1287 33.2308 30.7692 33.2308H27.0769V27.0769Z" fill="url(#paint16_linear_7_84)"/>
</g>
<g opacity="0.4">
<path d="M6.76923 9.23077C6.76923 7.8713 7.8713 6.76923 9.23077 6.76923H12.9231V12.9231H6.76923V9.23077Z" fill="url(#paint17_linear_7_84)"/>
<path d="M6.76923 13.5385H12.9231V19.6923H6.76923V13.5385Z" fill="url(#paint18_linear_7_84)"/>
<path d="M0 20.3077H6.15385V26.4615H0V20.3077Z" fill="url(#paint19_linear_7_84)"/>
<path d="M6.76923 27.0769H12.9231V33.2308H9.23077C7.8713 33.2308 6.76923 32.1287 6.76923 30.7692V27.0769Z" fill="url(#paint20_linear_7_84)"/>
<path d="M13.5385 6.76923H19.6923V12.9231H13.5385V6.76923Z" fill="url(#paint21_linear_7_84)"/>
<path d="M13.5385 13.5385H19.6923V19.6923H13.5385V13.5385Z" fill="url(#paint22_linear_7_84)"/>
<path d="M13.5385 20.3077H19.6923V26.4615H13.5385V20.3077Z" fill="url(#paint23_linear_7_84)"/>
<path d="M13.5385 27.0769H19.6923V33.2308H13.5385V27.0769Z" fill="url(#paint24_linear_7_84)"/>
<path d="M20.3077 0H26.4615V6.15385H20.3077V0Z" fill="url(#paint25_linear_7_84)"/>
<path d="M20.3077 13.5385H26.4615V19.6923H20.3077V13.5385Z" fill="url(#paint26_linear_7_84)"/>
<path d="M20.3077 20.3077H26.4615V26.4615H20.3077V20.3077Z" fill="url(#paint27_linear_7_84)"/>
<path d="M20.3077 33.8462H26.4615V40H20.3077V33.8462Z" fill="url(#paint28_linear_7_84)"/>
<path d="M27.0769 6.76923H30.7692C32.1287 6.76923 33.2308 7.8713 33.2308 9.23077V12.9231H27.0769V6.76923Z" fill="url(#paint29_linear_7_84)"/>
<path d="M33.8462 13.5385H40V19.6923H33.8462V13.5385Z" fill="url(#paint30_linear_7_84)"/>
<path d="M27.0769 20.3077H33.2308V26.4615H27.0769V20.3077Z" fill="url(#paint31_linear_7_84)"/>
<path d="M27.0769 27.0769H33.2308V30.7692C33.2308 32.1287 32.1287 33.2308 30.7692 33.2308H27.0769V27.0769Z" fill="url(#paint32_linear_7_84)"/>
</g>
<defs>
<linearGradient id="paint0_linear_7_84" x1="49" y1="44.05" x2="147.759" y2="8.64008" gradientUnits="userSpaceOnUse">
<stop stop-color="#7EE68F"/>
<stop offset="1" stop-color="#67EDD0"/>
</linearGradient>
<linearGradient id="paint1_linear_7_84" x1="10" y1="31" x2="30.2308" y2="8.61538" gradientUnits="userSpaceOnUse">
<stop stop-color="#71D73A"/>
<stop offset="0.453125" stop-color="#34DE59"/>
<stop offset="1" stop-color="#27E4BC"/>
</linearGradient>
<linearGradient id="paint2_linear_7_84" x1="10" y1="31" x2="30.2308" y2="8.61538" gradientUnits="userSpaceOnUse">
<stop stop-color="#71D73A"/>
<stop offset="0.453125" stop-color="#34DE59"/>
<stop offset="1" stop-color="#27E4BC"/>
</linearGradient>
<linearGradient id="paint3_linear_7_84" x1="10" y1="31" x2="30.2308" y2="8.61538" gradientUnits="userSpaceOnUse">
<stop stop-color="#71D73A"/>
<stop offset="0.453125" stop-color="#34DE59"/>
<stop offset="1" stop-color="#27E4BC"/>
</linearGradient>
<linearGradient id="paint4_linear_7_84" x1="10" y1="31" x2="30.2308" y2="8.61538" gradientUnits="userSpaceOnUse">
<stop stop-color="#71D73A"/>
<stop offset="0.453125" stop-color="#34DE59"/>
<stop offset="1" stop-color="#27E4BC"/>
</linearGradient>
<linearGradient id="paint5_linear_7_84" x1="10" y1="31" x2="30.2308" y2="8.61538" gradientUnits="userSpaceOnUse">
<stop stop-color="#71D73A"/>
<stop offset="0.453125" stop-color="#34DE59"/>
<stop offset="1" stop-color="#27E4BC"/>
</linearGradient>
<linearGradient id="paint6_linear_7_84" x1="10" y1="31" x2="30.2308" y2="8.61538" gradientUnits="userSpaceOnUse">
<stop stop-color="#71D73A"/>
<stop offset="0.453125" stop-color="#34DE59"/>
<stop offset="1" stop-color="#27E4BC"/>
</linearGradient>
<linearGradient id="paint7_linear_7_84" x1="10" y1="31" x2="30.2308" y2="8.61538" gradientUnits="userSpaceOnUse">
<stop stop-color="#71D73A"/>
<stop offset="0.453125" stop-color="#34DE59"/>
<stop offset="1" stop-color="#27E4BC"/>
</linearGradient>
<linearGradient id="paint8_linear_7_84" x1="10" y1="31" x2="30.2308" y2="8.61538" gradientUnits="userSpaceOnUse">
<stop stop-color="#71D73A"/>
<stop offset="0.453125" stop-color="#34DE59"/>
<stop offset="1" stop-color="#27E4BC"/>
</linearGradient>
<linearGradient id="paint9_linear_7_84" x1="10" y1="31" x2="30.2308" y2="8.61538" gradientUnits="userSpaceOnUse">
<stop stop-color="#71D73A"/>
<stop offset="0.453125" stop-color="#34DE59"/>
<stop offset="1" stop-color="#27E4BC"/>
</linearGradient>
<linearGradient id="paint10_linear_7_84" x1="10" y1="31" x2="30.2308" y2="8.61538" gradientUnits="userSpaceOnUse">
<stop stop-color="#71D73A"/>
<stop offset="0.453125" stop-color="#34DE59"/>
<stop offset="1" stop-color="#27E4BC"/>
</linearGradient>
<linearGradient id="paint11_linear_7_84" x1="10" y1="31" x2="30.2308" y2="8.61538" gradientUnits="userSpaceOnUse">
<stop stop-color="#71D73A"/>
<stop offset="0.453125" stop-color="#34DE59"/>
<stop offset="1" stop-color="#27E4BC"/>
</linearGradient>
<linearGradient id="paint12_linear_7_84" x1="10" y1="31" x2="30.2308" y2="8.61538" gradientUnits="userSpaceOnUse">
<stop stop-color="#71D73A"/>
<stop offset="0.453125" stop-color="#34DE59"/>
<stop offset="1" stop-color="#27E4BC"/>
</linearGradient>
<linearGradient id="paint13_linear_7_84" x1="10" y1="31" x2="30.2308" y2="8.61538" gradientUnits="userSpaceOnUse">
<stop stop-color="#71D73A"/>
<stop offset="0.453125" stop-color="#34DE59"/>
<stop offset="1" stop-color="#27E4BC"/>
</linearGradient>
<linearGradient id="paint14_linear_7_84" x1="10" y1="31" x2="30.2308" y2="8.61538" gradientUnits="userSpaceOnUse">
<stop stop-color="#71D73A"/>
<stop offset="0.453125" stop-color="#34DE59"/>
<stop offset="1" stop-color="#27E4BC"/>
</linearGradient>
<linearGradient id="paint15_linear_7_84" x1="10" y1="31" x2="30.2308" y2="8.61538" gradientUnits="userSpaceOnUse">
<stop stop-color="#71D73A"/>
<stop offset="0.453125" stop-color="#34DE59"/>
<stop offset="1" stop-color="#27E4BC"/>
</linearGradient>
<linearGradient id="paint16_linear_7_84" x1="10" y1="31" x2="30.2308" y2="8.61538" gradientUnits="userSpaceOnUse">
<stop stop-color="#71D73A"/>
<stop offset="0.453125" stop-color="#34DE59"/>
<stop offset="1" stop-color="#27E4BC"/>
</linearGradient>
<linearGradient id="paint17_linear_7_84" x1="10" y1="31" x2="30.2308" y2="8.61538" gradientUnits="userSpaceOnUse">
<stop stop-color="#71D73A"/>
<stop offset="0.453125" stop-color="#34DE59"/>
<stop offset="1" stop-color="#27E4BC"/>
</linearGradient>
<linearGradient id="paint18_linear_7_84" x1="10" y1="31" x2="30.2308" y2="8.61538" gradientUnits="userSpaceOnUse">
<stop stop-color="#71D73A"/>
<stop offset="0.453125" stop-color="#34DE59"/>
<stop offset="1" stop-color="#27E4BC"/>
</linearGradient>
<linearGradient id="paint19_linear_7_84" x1="10" y1="31" x2="30.2308" y2="8.61538" gradientUnits="userSpaceOnUse">
<stop stop-color="#71D73A"/>
<stop offset="0.453125" stop-color="#34DE59"/>
<stop offset="1" stop-color="#27E4BC"/>
</linearGradient>
<linearGradient id="paint20_linear_7_84" x1="10" y1="31" x2="30.2308" y2="8.61538" gradientUnits="userSpaceOnUse">
<stop stop-color="#71D73A"/>
<stop offset="0.453125" stop-color="#34DE59"/>
<stop offset="1" stop-color="#27E4BC"/>
</linearGradient>
<linearGradient id="paint21_linear_7_84" x1="10" y1="31" x2="30.2308" y2="8.61538" gradientUnits="userSpaceOnUse">
<stop stop-color="#71D73A"/>
<stop offset="0.453125" stop-color="#34DE59"/>
<stop offset="1" stop-color="#27E4BC"/>
</linearGradient>
<linearGradient id="paint22_linear_7_84" x1="10" y1="31" x2="30.2308" y2="8.61538" gradientUnits="userSpaceOnUse">
<stop stop-color="#71D73A"/>
<stop offset="0.453125" stop-color="#34DE59"/>
<stop offset="1" stop-color="#27E4BC"/>
</linearGradient>
<linearGradient id="paint23_linear_7_84" x1="10" y1="31" x2="30.2308" y2="8.61538" gradientUnits="userSpaceOnUse">
<stop stop-color="#71D73A"/>
<stop offset="0.453125" stop-color="#34DE59"/>
<stop offset="1" stop-color="#27E4BC"/>
</linearGradient>
<linearGradient id="paint24_linear_7_84" x1="10" y1="31" x2="30.2308" y2="8.61538" gradientUnits="userSpaceOnUse">
<stop stop-color="#71D73A"/>
<stop offset="0.453125" stop-color="#34DE59"/>
<stop offset="1" stop-color="#27E4BC"/>
</linearGradient>
<linearGradient id="paint25_linear_7_84" x1="10" y1="31" x2="30.2308" y2="8.61538" gradientUnits="userSpaceOnUse">
<stop stop-color="#71D73A"/>
<stop offset="0.453125" stop-color="#34DE59"/>
<stop offset="1" stop-color="#27E4BC"/>
</linearGradient>
<linearGradient id="paint26_linear_7_84" x1="10" y1="31" x2="30.2308" y2="8.61538" gradientUnits="userSpaceOnUse">
<stop stop-color="#71D73A"/>
<stop offset="0.453125" stop-color="#34DE59"/>
<stop offset="1" stop-color="#27E4BC"/>
</linearGradient>
<linearGradient id="paint27_linear_7_84" x1="10" y1="31" x2="30.2308" y2="8.61538" gradientUnits="userSpaceOnUse">
<stop stop-color="#71D73A"/>
<stop offset="0.453125" stop-color="#34DE59"/>
<stop offset="1" stop-color="#27E4BC"/>
</linearGradient>
<linearGradient id="paint28_linear_7_84" x1="10" y1="31" x2="30.2308" y2="8.61538" gradientUnits="userSpaceOnUse">
<stop stop-color="#71D73A"/>
<stop offset="0.453125" stop-color="#34DE59"/>
<stop offset="1" stop-color="#27E4BC"/>
</linearGradient>
<linearGradient id="paint29_linear_7_84" x1="10" y1="31" x2="30.2308" y2="8.61538" gradientUnits="userSpaceOnUse">
<stop stop-color="#71D73A"/>
<stop offset="0.453125" stop-color="#34DE59"/>
<stop offset="1" stop-color="#27E4BC"/>
</linearGradient>
<linearGradient id="paint30_linear_7_84" x1="10" y1="31" x2="30.2308" y2="8.61538" gradientUnits="userSpaceOnUse">
<stop stop-color="#71D73A"/>
<stop offset="0.453125" stop-color="#34DE59"/>
<stop offset="1" stop-color="#27E4BC"/>
</linearGradient>
<linearGradient id="paint31_linear_7_84" x1="10" y1="31" x2="30.2308" y2="8.61538" gradientUnits="userSpaceOnUse">
<stop stop-color="#71D73A"/>
<stop offset="0.453125" stop-color="#34DE59"/>
<stop offset="1" stop-color="#27E4BC"/>
</linearGradient>
<linearGradient id="paint32_linear_7_84" x1="10" y1="31" x2="30.2308" y2="8.61538" gradientUnits="userSpaceOnUse">
<stop stop-color="#71D73A"/>
<stop offset="0.453125" stop-color="#34DE59"/>
<stop offset="1" stop-color="#27E4BC"/>
</linearGradient>
</defs>
</svg>
