<svg id="Layer_1" data-name="Layer 1" xmlns="http://www.w3.org/2000/svg" xmlns:xlink="http://www.w3.org/1999/xlink" viewBox="0 0 39.94 50.09"><defs><style>.cls-1{fill:url(#linear-gradient);}.cls-2{fill:url(#linear-gradient-2);}.cls-3{fill:url(#linear-gradient-3);}.cls-4{fill:url(#linear-gradient-5);}.cls-5{fill:url(#linear-gradient-6);}.cls-6{fill:url(#linear-gradient-7);}.cls-7{fill:url(#linear-gradient-11);}.cls-8{fill:url(#linear-gradient-13);}.cls-9{fill:url(#linear-gradient-14);}.cls-10{fill:url(#linear-gradient-15);}</style><linearGradient id="linear-gradient" x1="-12.8" y1="33.66" x2="23.81" y2="-2.96" gradientUnits="userSpaceOnUse"><stop offset="0" stop-color="#91ff55"/><stop offset="0.99" stop-color="#55ffdb"/></linearGradient><linearGradient id="linear-gradient-2" x1="-8.34" y1="38.12" x2="28.28" y2="1.51" xlink:href="#linear-gradient"/><linearGradient id="linear-gradient-3" x1="5.9" y1="44.2" x2="37.3" y2="12.8" xlink:href="#linear-gradient"/><linearGradient id="linear-gradient-5" x1="-3.26" y1="43.2" x2="33.36" y2="6.58" xlink:href="#linear-gradient"/><linearGradient id="linear-gradient-6" x1="1.82" y1="48.28" x2="38.43" y2="11.66" xlink:href="#linear-gradient"/><linearGradient id="linear-gradient-7" x1="6.89" y1="53.36" x2="43.51" y2="16.74" xlink:href="#linear-gradient"/><linearGradient id="linear-gradient-11" x1="2.88" y1="47.21" x2="34.4" y2="15.69" xlink:href="#linear-gradient"/><linearGradient id="linear-gradient-13" x1="11.97" y1="58.43" x2="48.59" y2="21.81" xlink:href="#linear-gradient"/><linearGradient id="linear-gradient-14" x1="16.53" y1="62.99" x2="53.15" y2="26.37" xlink:href="#linear-gradient"/><linearGradient id="linear-gradient-15" x1="-0.75" y1="31.38" x2="32.62" y2="-1.99" xlink:href="#linear-gradient"/></defs><path class="cls-1" d="M4.17,10.15H9.48v9.48H0V14.32A4.17,4.17,0,0,1,4.17,10.15Z"/><rect class="cls-2" x="10.15" y="10.15" width="9.48" height="9.48"/><path class="cls-3" d="M30.46,10.15h4.87a4.61,4.61,0,0,1,4.61,4.61v4.87H30.46Z"/><rect class="cls-2" y="20.31" width="9.48" height="9.48"/><rect class="cls-4" x="10.15" y="20.31" width="9.48" height="9.48"/><rect class="cls-5" x="20.31" y="20.31" width="9.48" height="9.48"/><rect class="cls-6" x="30.46" y="20.31" width="9.48" height="9.48"/><rect class="cls-4" y="30.46" width="9.48" height="9.48"/><rect class="cls-5" x="10.15" y="30.46" width="9.48" height="9.48"/><rect class="cls-6" x="20.31" y="30.46" width="9.48" height="9.48"/><path class="cls-7" d="M0,40.62H9.48v9.47h-5A4.5,4.5,0,0,1,0,45.59Z"/><rect class="cls-6" x="10.15" y="40.62" width="9.48" height="9.48"/><rect class="cls-8" x="20.31" y="40.62" width="9.48" height="9.48"/><path class="cls-9" d="M30.46,40.62h9.48v5.93a3.54,3.54,0,0,1-3.55,3.54H30.46Z"/><path class="cls-10" d="M23.18,0h3.74a2.87,2.87,0,0,1,2.87,2.87V9.48H20.31V2.87A2.86,2.86,0,0,1,23.18,0Z"/></svg>